<?xml version="1.0" encoding="utf-8"?>
<!-- Generator: Adobe Illustrator 19.0.1, SVG Export Plug-In . SVG Version: 6.00 Build 0)  -->
<svg version="1.0" id="Layer_1" xmlns="http://www.w3.org/2000/svg" xmlns:xlink="http://www.w3.org/1999/xlink" x="0px" y="0px"
	 viewBox="0 0 188.7 17.9" style="enable-background:new 0 0 188.7 17.9;" xml:space="preserve">
<style type="text/css">
	.st0{fill:#043D5D;}
</style>
<g>
	<path class="st0" d="M10.1,9.7C9.7,9.6,8.9,9.4,8.2,8.9c-1-0.7-1.6-1.6-1.6-2.8c-0.1-1,0.3-1.9,0.9-2.6c0.9-1,2.3-1.2,2.9-1.2
		c1.8,0,2.8,0.7,3.8,1.3l0.4,0.3l-1.3,2.1l-0.4-0.3c-0.8-0.5-1.3-0.9-2.4-0.9c-0.2,0-0.8,0.1-1.1,0.5C9.2,5.4,9.1,5.6,9.1,6
		c0,0.6,0.5,1,1.6,1.3c0.1,0,0.3,0.1,0.4,0.1c1.2,0.4,2.1,1,2.8,1.7c0.6,0.7,1,1.6,1,2.5c0,0.9-0.4,1.8-1,2.5
		c-0.7,0.8-1.8,1.3-2.9,1.3c-0.6,0-1.3,0-2.2-0.3c-1.1-0.4-2.1-1-3-1.9l1.8-1.7c1.3,1.4,2.8,1.4,3.4,1.4c1,0,1.4-0.9,1.4-1.3
		c0-0.7-0.8-1.3-2.1-1.8L10.1,9.7L10.1,9.7z"/>
	<path class="st0" d="M20.6,5v7.5h1.3V15h-5.2v-2.5h1.3V5h-1.3V2.5h5.2V5H20.6z"/>
	<path class="st0" d="M27.8,2.5c0.8,0,1.7,0.2,2.4,0.5c0.8,0.3,1.4,0.8,2,1.3c0.6,0.6,1,1.3,1.3,2c0.3,0.8,0.5,1.6,0.5,2.4
		c0,0.9-0.2,1.7-0.5,2.5c-0.3,0.8-0.8,1.4-1.3,2c-0.6,0.6-1.2,1-2,1.3c-0.8,0.3-1.6,0.5-2.4,0.5h-2.5v0h-1V2.5H27.8z M27.8,12.5
		c2.1,0,3.8-1.7,3.8-3.8S29.9,5,27.8,5h-1v7.5H27.8z"/>
	<path class="st0" d="M44.4,5h-5.9v2.3h4.8v2.5h-4.8v2.7h5.8V15h-8.3V2.5h8.4V5z"/>
	<path class="st0" d="M50.2,9.3l-1,1V15h-2.5V2.5h2.5v4l3.7-4h3.4l-4.4,4.9l4.5,7.6h-3L50.2,9.3z"/>
	<path class="st0" d="M62.1,5v7.5h1.3V15h-5.2v-2.5h1.3V5h-1.3V2.5h5.2V5H62.1z"/>
	<path class="st0" d="M70.7,15.1c-3-0.6-5.2-3.2-5.2-6.4c0-3.6,2.9-6.5,6.5-6.5s6.5,2.9,6.5,6.5c0,3-2.1,5.6-4.9,6.3h2.8v2.5h-7
		L70.7,15.1z M69.2,11.6c0.8,0.8,1.8,1.2,2.8,1.2c1.1,0,2.1-0.4,2.8-1.2c0.8-0.8,1.2-1.8,1.2-2.8s-0.4-2.1-1.2-2.8
		c-0.8-0.8-1.8-1.2-2.8-1.2c-1.1,0-2.1,0.4-2.8,1.2C68.4,6.7,68,7.7,68,8.7S68.4,10.8,69.2,11.6z"/>
	<path class="st0" d="M89.5,9.7c-0.4-0.1-1.2-0.3-1.9-0.8c-1-0.7-1.6-1.6-1.6-2.8c-0.1-1,0.3-1.9,0.9-2.6c0.9-1,2.3-1.2,2.9-1.2
		c1.8,0,2.8,0.7,3.8,1.3L94,3.8l-1.3,2.1l-0.4-0.3c-0.8-0.5-1.3-0.9-2.4-0.9c-0.2,0-0.8,0.1-1.1,0.5c-0.1,0.1-0.2,0.3-0.2,0.7
		c0,0.6,0.5,1,1.6,1.3c0.1,0,0.3,0.1,0.4,0.1c1.2,0.4,2.1,1,2.8,1.7c0.6,0.7,1,1.6,1,2.5c0,0.9-0.4,1.8-1,2.5
		c-0.7,0.8-1.8,1.3-2.9,1.3c-0.6,0-1.3,0-2.2-0.3c-1.1-0.4-2.1-1-3-1.9l1.8-1.7c1.3,1.4,2.8,1.4,3.4,1.4c1,0,1.4-0.9,1.4-1.3
		c0-0.7-0.8-1.3-2.1-1.8L89.5,9.7L89.5,9.7z"/>
	<path class="st0" d="M105.1,5.5C102.6,3.9,99,5.4,99,8.8c0,3.5,3.9,4.9,6.3,3.2l1.6,1.8c-1.1,0.9-2.6,1.5-4.2,1.5
		c-3.6,0-6.5-2.9-6.5-6.5s2.9-6.5,6.5-6.5c1.5,0,2.9,0.5,4,1.4L105.1,5.5z"/>
	<path class="st0" d="M116.3,2.5h2.5V15h-2.5V9.8h-4.6V15h-2.5V2.5h2.5v4.8h4.6V2.5z"/>
	<path class="st0" d="M129.3,5h-5.9v2.3h4.8v2.5h-4.8v2.7h5.8V15H121V2.5h8.4V5z"/>
	<path class="st0" d="M135.2,2.5c0.8,0,1.7,0.2,2.4,0.5c0.8,0.3,1.4,0.8,2,1.3c0.6,0.6,1,1.3,1.3,2c0.3,0.8,0.5,1.6,0.5,2.4
		c0,0.9-0.2,1.7-0.5,2.5c-0.3,0.8-0.8,1.4-1.3,2c-0.6,0.6-1.2,1-2,1.3c-0.8,0.3-1.6,0.5-2.4,0.5h-2.5v0h-1V2.5H135.2z M135.2,12.5
		c2.1,0,3.8-1.7,3.8-3.8S137.3,5,135.2,5h-1v7.5H135.2z"/>
	<path class="st0" d="M152.9,10.4c0,2.7-2.2,4.9-4.9,4.9c-2.7,0-4.9-2.2-4.9-4.8V2.5h2.5v7.9c0,0.6,0.3,1.2,0.7,1.7
		c0.4,0.4,1,0.7,1.7,0.7c0.6,0,1.2-0.2,1.6-0.7c0.4-0.4,0.7-1,0.7-1.6h0V2.5h2.5L152.9,10.4L152.9,10.4z"/>
	<path class="st0" d="M156.4,12.5h4.7V15h-7.2V2.5h2.5V12.5z"/>
	<path class="st0" d="M171.4,5h-5.9v2.3h4.8v2.5h-4.8v2.7h5.8V15H163V2.5h8.4V5z"/>
	<path class="st0" d="M179.6,15l-2.3-5H176v5h-2.5V2.4h4.7c2.1,0,3.8,1.7,3.8,3.8c0,1.5-0.9,2.8-2.2,3.4l2.5,5.4H179.6z M176,4.9
		v2.5h2.2c0.7,0,1.3-0.6,1.3-1.3c0-0.7-0.6-1.3-1.3-1.3H176z"/>
</g>
</svg>
