<?xml version="1.0" encoding="utf-8"?>
<!-- Generator: Adobe Illustrator 19.0.1, SVG Export Plug-In . SVG Version: 6.00 Build 0)  -->
<svg version="1.1" id="Layer_1" xmlns="http://www.w3.org/2000/svg" xmlns:xlink="http://www.w3.org/1999/xlink" x="0px" y="0px"
	 viewBox="0 0 374 403.7" style="enable-background:new 0 0 374 403.7;" xml:space="preserve">
<style type="text/css">
	.st0{fill:#022430;}
	.st1{opacity:0.12;}
	.st2{fill:#033044;}
	.st3{fill:#043D5D;}
	.st4{fill:none;stroke:#FFFFFF;stroke-width:74;stroke-miterlimit:10;}
	.st5{fill:#D3E9F4;}
	.st6{opacity:9.000000e-02;fill:#FFFFFF;}
	.st7{fill:#FFFFFF;}
</style>
<g>
	<polygon class="st0" points="267.9,264.3 344.9,264.3 326.9,286.7 344.9,308.3 267.9,308.3 	"/>
	<ellipse class="st1" cx="183.4" cy="342.4" rx="104.3" ry="23.4"/>
	<path class="st2" d="M92.3,78.5L75.5,92.4c-2.2,1.9-2.6,5.2-0.7,7.4l10.6,12.9c1.9,2.2,5.2,2.6,7.4,0.7l16.8-13.9
		c2.2-1.9,2.6-5.2,0.7-7.4L99.7,79.2C97.9,77,94.5,76.7,92.3,78.5z"/>
	<path class="st2" d="M203,42.4l-41.2,0c-2.5,0-4.5,2-4.5,4.5l0,25.4c0,2.5,2,4.5,4.5,4.5l41.2,0c2.5,0,4.5-2,4.5-4.5l0-25.4
		C207.5,44.4,205.5,42.4,203,42.4z"/>
	<circle class="st3" cx="182.4" cy="204.1" r="134"/>
	<circle class="st4" cx="181.6" cy="203.9" r="77.4"/>
	<path class="st5" d="M195,184.3c-1.6-1.1-3.3-1.9-5-2.6l-7.9-61.6c-0.6-4.9-5.2-8.5-10.1-7.8s-8.5,5.2-7.8,10.1l7.7,59.8
		c-3.8,1.7-7.3,4.5-9.8,8.2c-7.4,10.8-4.7,25.6,6.1,33c10.8,7.4,25.6,4.7,33-6.1C208.5,206.5,205.8,191.7,195,184.3z M177.3,210
		c-3.4-2.3-4.3-7-1.9-10.4s7-4.3,10.4-1.9s4.3,7,1.9,10.4C185.4,211.5,180.7,212.4,177.3,210z"/>
	<path class="st6" d="M161.8,42.4c-2.5,0-4.5,2-4.5,4.5l0,25.4c0,0.1,0,0.1,0,0.2c-17.2,3.3-33.3,9.8-47.5,19L99.7,79.2
		c-1.9-2.2-5.2-2.6-7.4-0.7L75.5,92.4c-2.2,1.9-2.6,5.2-0.7,7.4l10.2,12.3c-22.6,24-36.5,56.3-36.5,91.9c0,74,60,134,134,134l0,0
		V42.4L161.8,42.4z"/>
	<polygon class="st2" points="303.9,326.4 53,326.4 70.3,304 53,282.4 303.9,282.4 	"/>
	<g>
		<path class="st7" d="M88.9,305c-0.5-0.1-1.3-0.3-2.2-0.9c-1.1-0.8-1.8-1.9-1.8-3.2c-0.1-1.1,0.3-2.1,1-2.9
			c1.1-1.1,2.6-1.4,3.3-1.4c2.1,0,3.2,0.8,4.3,1.4l0.5,0.3l-1.5,2.4l-0.5-0.3c-0.9-0.6-1.5-1-2.8-1c-0.2,0-0.9,0.1-1.3,0.5
			c-0.1,0.1-0.3,0.3-0.2,0.8c0,0.7,0.5,1.1,1.8,1.5c0.2,0,0.3,0.1,0.4,0.1c1.4,0.5,2.4,1.1,3.2,1.9c0.7,0.8,1.1,1.8,1.1,2.8
			c0,1-0.4,2-1.1,2.8c-0.8,0.9-2,1.5-3.3,1.5c-0.6,0-1.5,0-2.5-0.3c-1.3-0.4-2.4-1.1-3.4-2.2l2.1-2c1.5,1.6,3.2,1.6,3.8,1.6
			c1.2,0,1.6-1.1,1.6-1.4c0-0.8-0.9-1.5-2.4-2l-0.1,0L88.9,305z"/>
		<path class="st7" d="M100.9,299.6v8.6h1.5v2.9h-5.9v-2.9H98v-8.6h-1.5v-2.9h5.9v2.9H100.9z"/>
		<path class="st7" d="M109.1,296.7c1,0,1.9,0.2,2.8,0.6c0.9,0.4,1.6,0.9,2.3,1.5c0.7,0.7,1.2,1.4,1.5,2.3c0.4,0.9,0.6,1.8,0.6,2.8
			c0,1-0.2,1.9-0.6,2.8c-0.3,0.9-0.9,1.6-1.5,2.3c-0.7,0.7-1.4,1.2-2.3,1.5c-0.9,0.4-1.8,0.6-2.8,0.6h-2.9v0H105v-14.3H109.1z
			 M109.1,308.2c2.4,0,4.3-1.9,4.3-4.3s-1.9-4.3-4.3-4.3h-1.2v8.6H109.1z"/>
		<path class="st7" d="M128,299.6h-6.7v2.6h5.5v2.9h-5.5v3.1h6.6v2.9h-9.5v-14.3h9.5V299.6z"/>
		<path class="st7" d="M134.6,304.5l-1.1,1.1v5.4h-2.9v-14.3h2.9v4.6l4.2-4.6h3.9l-5,5.6l5.1,8.7h-3.4L134.6,304.5z"/>
		<path class="st7" d="M148,299.6v8.6h1.5v2.9h-5.9v-2.9h1.5v-8.6h-1.5v-2.9h5.9v2.9H148z"/>
		<path class="st7" d="M157.9,311.1c-3.4-0.7-5.9-3.7-5.9-7.3c0-4.1,3.3-7.4,7.4-7.4s7.4,3.3,7.4,7.4c0,3.5-2.4,6.4-5.6,7.2h3.2v2.9
			h-8L157.9,311.1z M156.2,307.1c0.9,0.9,2,1.3,3.2,1.3c1.2,0,2.4-0.5,3.2-1.3c0.9-0.9,1.3-2,1.3-3.2s-0.5-2.4-1.3-3.2
			c-0.9-0.9-2-1.3-3.2-1.3c-1.2,0-2.4,0.5-3.2,1.3c-0.9,0.9-1.3,2-1.3,3.2S155.3,306.2,156.2,307.1z"/>
		<path class="st7" d="M179.2,305c-0.5-0.1-1.3-0.3-2.2-0.9c-1.1-0.8-1.8-1.9-1.8-3.2c-0.1-1.1,0.3-2.1,1-2.9
			c1.1-1.1,2.6-1.4,3.3-1.4c2.1,0,3.2,0.8,4.3,1.4l0.5,0.3l-1.5,2.4l-0.5-0.3c-0.9-0.6-1.5-1-2.8-1c-0.2,0-0.9,0.1-1.3,0.5
			c-0.1,0.1-0.3,0.3-0.2,0.8c0,0.7,0.5,1.1,1.8,1.5c0.2,0,0.3,0.1,0.4,0.1c1.4,0.5,2.4,1.1,3.2,1.9c0.7,0.8,1.1,1.8,1.1,2.8
			c0,1-0.4,2-1.1,2.8c-0.8,0.9-2,1.5-3.3,1.5c-0.6,0-1.5,0-2.5-0.3c-1.3-0.4-2.4-1.1-3.4-2.2l2.1-2c1.5,1.6,3.2,1.6,3.8,1.6
			c1.2,0,1.6-1.1,1.6-1.4c0-0.8-0.9-1.5-2.4-2l-0.1,0L179.2,305z"/>
		<path class="st7" d="M197,300.2c-2.8-1.8-7-0.1-7,3.7c0,4,4.4,5.6,7.1,3.6l1.8,2.1c-1.3,1.1-2.9,1.7-4.7,1.7
			c-4.1,0-7.4-3.3-7.4-7.4s3.3-7.4,7.4-7.4c1.7,0,3.3,0.6,4.6,1.6L197,300.2z"/>
		<path class="st7" d="M209.8,296.7h2.9V311h-2.9v-6h-5.3v6h-2.9v-14.3h2.9v5.5h5.3V296.7z"/>
		<path class="st7" d="M224.6,299.6h-6.7v2.6h5.5v2.9h-5.5v3.1h6.6v2.9h-9.5v-14.3h9.5V299.6z"/>
		<path class="st7" d="M231.3,296.7c1,0,1.9,0.2,2.8,0.6c0.9,0.4,1.6,0.9,2.3,1.5c0.7,0.7,1.2,1.4,1.5,2.3c0.4,0.9,0.6,1.8,0.6,2.8
			c0,1-0.2,1.9-0.6,2.8c-0.3,0.9-0.9,1.6-1.5,2.3c-0.7,0.7-1.4,1.2-2.3,1.5c-0.9,0.4-1.8,0.6-2.8,0.6h-2.9v0h-1.2v-14.3H231.3z
			 M231.3,308.2c2.4,0,4.3-1.9,4.3-4.3s-1.9-4.3-4.3-4.3h-1.2v8.6H231.3z"/>
		<path class="st7" d="M251.4,305.7c0,3.1-2.5,5.5-5.5,5.5c-3.1,0-5.5-2.5-5.5-5.5v-9h2.9v9c0,0.7,0.3,1.4,0.8,1.9
			c0.5,0.5,1.2,0.8,1.9,0.8c0.7,0,1.4-0.3,1.9-0.8c0.5-0.5,0.8-1.2,0.8-1.9h0v-9h2.9L251.4,305.7L251.4,305.7z"/>
		<path class="st7" d="M255.4,308.2h5.3v2.8h-8.2v-14.3h2.9V308.2z"/>
		<path class="st7" d="M272.5,299.6h-6.7v2.6h5.5v2.9h-5.5v3.1h6.6v2.9h-9.5v-14.3h9.5V299.6z"/>
		<path class="st7" d="M281.9,311l-2.7-5.7h-1.4v5.7h-2.9v-14.3h5.4c2.4,0,4.3,1.9,4.3,4.3c0,1.7-1,3.2-2.5,3.9l2.8,6.1H281.9z
			 M277.8,299.6v2.9h2.5c0.8,0,1.4-0.6,1.4-1.4c0-0.8-0.6-1.4-1.4-1.4H277.8z"/>
	</g>
</g>
</svg>
