<?xml version="1.0" encoding="utf-8"?>
<!-- Generator: Adobe Illustrator 19.0.1, SVG Export Plug-In . SVG Version: 6.00 Build 0)  -->
<svg version="1.0" id="Layer_1" xmlns="http://www.w3.org/2000/svg" xmlns:xlink="http://www.w3.org/1999/xlink" x="0px" y="0px"
	 viewBox="0 0 351.2 300" style="enable-background:new 0 0 351.2 300;" xml:space="preserve">
<style type="text/css">
	.st0{fill:none;stroke:#61B4E2;stroke-width:5;stroke-miterlimit:10;}
	.st1{fill:#61B4E2;}
	.st2{fill:#043D5D;}
	.st3{fill:#033044;}
	.st4{opacity:0.5;fill:#FFFFFF;stroke:#FFFFFF;stroke-miterlimit:10;}
	.st5{opacity:9.000000e-02;fill:#FFFFFF;}
	.st6{fill:#FFFFFF;}
	.st7{fill:#D3E9F4;}
</style>
<g>
	<g>
		<path class="st0" d="M269.5,259.9c-8.6,0.9-17.3,0.8-25.8,0"/>
		<path class="st0" d="M297.2,252.2c-4.8,2.1-9.8,3.8-14.8,5.1"/>
		<path class="st0" d="M321.9,235.3c-3.6,3.7-7.6,7-11.9,9.8"/>
		<path class="st0" d="M338.9,207.8c-1.9,5.7-4.5,11.1-7.7,16"/>
		<path class="st0" d="M341.7,178c0.6,5.1,0.8,10.3,0.3,15.4"/>
		<path class="st0" d="M330.8,147.2c3.2,5.1,5.7,10.6,7.6,16.4"/>
		<path class="st0" d="M311.2,125.2c3.8,3,7.4,6.4,10.6,10"/>
		<path class="st0" d="M280.8,108.8c6.2,2.2,12.3,4.9,18,8.1"/>
		<path class="st0" d="M252.1,102.2c5.4,0.7,10.7,1.6,16,2.8"/>
		<path class="st1" d="M248.4,272.1c-1.3,1.1-3.2,0.9-4.2-0.4l-9.2-11.1c-1.1-1.3-0.9-3.2,0.4-4.2l11.1-9.2c1.3-1.1,3.2-0.9,4.2,0.4
			L248.4,272.1z"/>
	</g>
	<g>
		<path class="st2" d="M168,247.8l-3.8,2.4c-0.3-0.1-0.6-0.3-0.9-0.4l-1-4.4c-0.2-0.7-0.8-1.2-1.5-1.2l-4.4,0
			c-0.7,0-1.4,0.5-1.5,1.2l-1,4.4c-0.3,0.1-0.6,0.2-0.9,0.4l-3.8-2.4c-0.6-0.4-1.5-0.3-1.9,0.2l-3.1,3.1c-0.5,0.5-0.6,1.4-0.2,1.9
			l2.4,3.8c-0.1,0.3-0.3,0.6-0.4,0.9l-4.4,1c-0.7,0.2-1.2,0.8-1.2,1.5l0,4.4c0,0.7,0.5,1.4,1.2,1.5l4.4,1c0.1,0.3,0.2,0.6,0.4,0.9
			l-2.4,3.8c-0.4,0.6-0.3,1.5,0.2,1.9l3.1,3.1c0.5,0.5,1.4,0.6,1.9,0.2l3.8-2.4c0.3,0.1,0.6,0.3,0.9,0.4l1,4.4
			c0.2,0.7,0.8,1.2,1.5,1.2l4.4,0c0.7,0,1.4-0.5,1.5-1.2l1-4.4c0.3-0.1,0.6-0.2,0.9-0.4l3.8,2.4c0.6,0.4,1.5,0.3,1.9-0.2l3.1-3.1
			c0.5-0.5,0.6-1.4,0.2-1.9l-2.4-3.8c0.1-0.3,0.3-0.6,0.4-0.9l4.4-1c0.7-0.2,1.2-0.8,1.2-1.5l0-4.4c0-0.7-0.5-1.4-1.2-1.5l-4.4-1
			c-0.1-0.3-0.2-0.6-0.4-0.9l2.4-3.8c0.4-0.6,0.3-1.5-0.2-1.9l-3.1-3.1C169.4,247.5,168.6,247.4,168,247.8z M161.8,265.5
			c-1.7,1.7-4.6,1.7-6.3,0c-1.7-1.7-1.7-4.6,0-6.3c1.7-1.7,4.6-1.7,6.3,0C163.5,261,163.5,263.8,161.8,265.5z"/>
		<path class="st2" d="M212.7,251.4l-4.8,3c-0.4-0.2-0.7-0.3-1.1-0.5l-1.2-5.5c-0.2-0.8-1.1-1.5-1.9-1.5l-5.5,0
			c-0.9,0-1.7,0.7-1.9,1.5L195,254c-0.4,0.1-0.7,0.3-1.1,0.5l-4.8-3c-0.7-0.5-1.8-0.3-2.4,0.3l-3.9,3.9c-0.6,0.6-0.7,1.7-0.3,2.4
			l3,4.8c-0.2,0.4-0.3,0.7-0.5,1.1l-5.5,1.2c-0.8,0.2-1.5,1.1-1.5,1.9l0,5.5c0,0.9,0.7,1.7,1.5,1.9l5.5,1.2c0.1,0.4,0.3,0.7,0.5,1.1
			l-3,4.8c-0.5,0.7-0.3,1.8,0.3,2.4l3.9,3.9c0.6,0.6,1.7,0.7,2.4,0.3l4.8-3c0.4,0.2,0.7,0.3,1.1,0.5l1.2,5.5
			c0.2,0.8,1.1,1.5,1.9,1.5l5.5,0c0.9,0,1.7-0.7,1.9-1.5l1.2-5.5c0.4-0.1,0.7-0.3,1.1-0.5l4.8,3c0.7,0.5,1.8,0.3,2.4-0.3l3.9-3.9
			c0.6-0.6,0.7-1.7,0.3-2.4l-3-4.8c0.2-0.4,0.3-0.7,0.5-1.1l5.5-1.2c0.8-0.2,1.5-1.1,1.5-1.9l0-5.5c0-0.9-0.7-1.7-1.5-1.9l-5.5-1.2
			c-0.1-0.4-0.3-0.7-0.5-1.1l3-4.8c0.5-0.7,0.3-1.8-0.3-2.4l-3.9-3.9C214.6,251.1,213.5,251,212.7,251.4z M204.9,273.8
			c-2.2,2.2-5.7,2.2-7.9,0c-2.2-2.2-2.2-5.7,0-7.9c2.2-2.2,5.7-2.2,7.9,0C207.1,268.1,207.1,271.6,204.9,273.8z"/>
		<path class="st2" d="M186.1,230.8l-2.3,1.4c-0.2-0.1-0.3-0.2-0.5-0.2l-0.6-2.6c-0.1-0.4-0.5-0.7-0.9-0.7l-2.6,0
			c-0.4,0-0.8,0.3-0.9,0.7l-0.6,2.6c-0.2,0.1-0.4,0.1-0.5,0.2l-2.3-1.4c-0.3-0.2-0.9-0.2-1.2,0.1l-1.8,1.8c-0.3,0.3-0.3,0.8-0.1,1.2
			l1.4,2.3c-0.1,0.2-0.2,0.3-0.2,0.5l-2.6,0.6c-0.4,0.1-0.7,0.5-0.7,0.9l0,2.6c0,0.4,0.3,0.8,0.7,0.9l2.6,0.6
			c0.1,0.2,0.1,0.3,0.2,0.5l-1.4,2.3c-0.2,0.3-0.2,0.9,0.1,1.2l1.8,1.8c0.3,0.3,0.8,0.3,1.2,0.1l2.3-1.4c0.2,0.1,0.3,0.2,0.5,0.2
			l0.6,2.6c0.1,0.4,0.5,0.7,0.9,0.7l2.6,0c0.4,0,0.8-0.3,0.9-0.7l0.6-2.6c0.2-0.1,0.3-0.1,0.5-0.2l2.3,1.4c0.3,0.2,0.9,0.2,1.2-0.1
			l1.8-1.8c0.3-0.3,0.3-0.8,0.1-1.2l-1.4-2.3c0.1-0.2,0.2-0.3,0.2-0.5l2.6-0.6c0.4-0.1,0.7-0.5,0.7-0.9l0-2.6c0-0.4-0.3-0.8-0.7-0.9
			l-2.6-0.6c-0.1-0.2-0.1-0.3-0.2-0.5l1.4-2.3c0.2-0.3,0.2-0.9-0.1-1.2l-1.8-1.8C187,230.6,186.4,230.6,186.1,230.8z M182.4,241.3
			c-1,1-2.7,1-3.8,0c-1-1-1-2.7,0-3.8c1-1,2.7-1,3.8,0C183.4,238.6,183.4,240.3,182.4,241.3z"/>
	</g>
	<g>
		<path class="st3" d="M139.5,27.7l-7.1,5.9c-1,0.8-1.1,2.3-0.3,3.3l4.7,5.7c0.8,1,2.3,1.1,3.3,0.3l7.1-5.9c1-0.8,1.1-2.3,0.3-3.3
			l-4.7-5.7C142,27,140.5,26.9,139.5,27.7z"/>
		<path class="st3" d="M187.1,12.4l-16.2,0c-1.6,0-2.9,1.3-2.9,2.9l0,9.3c0,1.6,1.3,2.9,2.9,2.9l16.2,0c1.6,0,2.9-1.3,2.9-2.9l0-9.3
			C190.1,13.7,188.7,12.4,187.1,12.4z"/>
		<circle class="st2" cx="178.4" cy="83.6" r="58.9"/>
		<path class="st4" d="M178,132.5c-27,0-49-22-49-49s22-49,49-49s49,22,49,49S205,132.5,178,132.5z M178,64.5c-10.5,0-19,8.5-19,19
			s8.5,19,19,19s19-8.5,19-19S188.5,64.5,178,64.5z"/>
		<path class="st5" d="M170.3,11.7c-1.1,0-2,0.9-2,2l0,11.3c0,0,0,0,0,0.1c-7.7,1.4-14.9,4.4-21.3,8.4l-4.5-5.4
			c-0.8-1-2.3-1.1-3.3-0.3l-7.5,6.2c-1,0.8-1.1,2.3-0.3,3.3l4.6,5.4c-10.1,10.6-16.4,25-16.4,40.7c0,32.8,26.9,59.4,60,59.4l0,0
			V11.7L170.3,11.7z"/>
		<path class="st6" d="M196.8,81.1c0.1,0.8,0.2,1.6,0.2,2.4c0,10.5-8.5,19-19,19s-19-8.5-19-19s8.7-19,19.2-19c0.1,0-0.4,0,0.6,0
			v-30c-1,0-0.5,0-0.6,0c-27,0-49.1,22-49.1,49s21.9,49,48.9,49s49-22,49-49c0-0.8,0-1.6-0.1-2.4H196.8z"/>
		<path class="st7" d="M181.8,73.5c-0.8-0.3-1.6-0.6-2.4-0.7l-8.7-25.8c-0.7-2.1-3-3.2-5-2.5s-3.2,3-2.5,5l8.5,25.1
			c-1.5,1.1-2.7,2.5-3.5,4.4c-2.3,5.3,0.2,11.4,5.5,13.7c5.3,2.3,11.4-0.2,13.7-5.5C189.5,81.9,187.1,75.7,181.8,73.5z M176.4,86.1
			c-1.7-0.7-2.5-2.7-1.7-4.3s2.7-2.5,4.3-1.7s2.5,2.7,1.7,4.3C180,86,178.1,86.8,176.4,86.1z"/>
	</g>
	<g>
		<path class="st0" d="M75.6,102.2c8.6-2.5,17.4-4.1,26.3-4.8"/>
		<path class="st0" d="M48.8,115.3c4.5-3.1,9.2-5.7,14.2-7.9"/>
		<path class="st0" d="M26.7,137.2c3-4.4,6.5-8.5,10.3-12.3"/>
		<path class="st0" d="M14.6,168.4c0.8-6.1,2.5-12.1,4.9-17.8"/>
		<path class="st0" d="M17.3,199.3c-1.6-5.1-2.7-10.3-3.1-15.7"/>
		<path class="st0" d="M34.2,228.6c-4.2-4.7-7.8-9.8-10.8-15.3"/>
		<path class="st0" d="M58.3,247.4c-4.5-2.4-8.7-5.1-12.7-8.2"/>
		<path class="st0" d="M92.4,258.5c-6.7-1.1-13.4-2.7-19.9-4.9"/>
		<path class="st0" d="M122.8,259.8c-5.6,0.3-11.2,0.4-16.8,0.1"/>
		<path class="st1" d="M94.8,85.9c1.1-1.3,3.1-1.5,4.4-0.4l11.5,9.6c1.3,1.1,1.5,3.1,0.4,4.4l-9.6,11.5c-1.1,1.3-3.1,1.5-4.4,0.4
			L94.8,85.9z"/>
	</g>
</g>
</svg>
