<?xml version="1.0" encoding="UTF-8"?>
<svg width="198px" height="28px" viewBox="0 0 198 28" version="1.1" xmlns="http://www.w3.org/2000/svg" xmlns:xlink="http://www.w3.org/1999/xlink">
    <!-- Generator: Sketch 51.1 (57501) - http://www.bohemiancoding.com/sketch -->
    <title>Logo</title>
    <desc>Created with Sketch.</desc>
    <defs></defs>
    <g id="Twitter" stroke="none" stroke-width="1" fill="none" fill-rule="evenodd">
        <g id="Logo" fill="#0A0A36">
            <g id="Static">
                <path d="M24.0690085,13.9440579 C24.0690085,15.3678388 22.094086,17.3380527 19.3519842,20.0877542 C17.7815231,21.6625678 15.5121392,23.9885855 13.4610628,23.9885855 C11.3648583,23.9885855 10.1475253,22.579512 10.1475253,20.7891798 C10.1475253,19.1623249 11.6739864,17.7136548 12.4676785,16.8753381 C13.8429602,15.4227083 14.6535753,14.7490004 14.6535753,13.9440579 C14.6535753,13.1385498 13.8429602,12.4654075 12.4676785,11.0122121 C11.6739864,10.1738954 10.1475253,8.72522527 10.1475253,7.09837043 C10.1475253,5.04387224 11.7444992,3.90066166 13.2940885,3.90066166 C14.7607548,3.90066166 16.1360364,4.57493529 19.3519842,7.79979602 C22.094086,10.5494975 24.0690085,12.5202771 24.0690085,13.9440579 Z M0,13.943662 C0,12.4689712 3.34343494,10.2905922 5.65456249,10.2905922 C7.72369011,10.2905922 9.86840744,11.9264977 9.86840744,13.943662 C9.86840744,15.9608262 7.72369011,17.5967317 5.65456249,17.5967317 C3.34343494,17.5967317 0,15.4189184 0,13.943662 Z M33.2078059,21.8420535 C29.991294,25.0669143 27.5876537,27.8873239 25.0802185,27.8873239 C23.7867317,27.8873239 21.73904,27.1129275 21.73904,24.3468217 C21.73904,22.7199669 23.3128857,20.9528269 24.1065777,20.1133789 C25.4818594,18.6613147 28.8495508,15.6757307 28.8495508,13.943662 C28.8495508,12.2115933 25.4767825,9.23110019 24.1020649,7.77960175 C23.3078087,6.9401537 21.73904,5.16792275 21.73904,3.54106791 C21.73904,0.774962146 23.7867317,0 25.0802185,0 C27.5876537,0 29.991294,2.81984401 33.2078059,6.04527041 C35.9499077,8.79497186 38.893394,12.0192669 38.893394,13.943662 C38.893394,15.868057 35.9499077,19.0929177 33.2078059,21.8420535 Z M86.8105086,3.62082679 C93.3958401,3.62082679 97.8093773,7.75018713 97.8093773,13.943662 C97.8093773,20.1371368 93.3958401,24.2664972 86.8105086,24.2664972 C80.1755361,24.2664972 75.7586143,20.1371368 75.7586143,13.943662 C75.7586143,7.75018713 80.1755361,3.62082679 86.8105086,3.62082679 Z M86.8105086,8.23892238 C83.6425095,8.23892238 81.5305101,10.5208182 81.5305101,13.943662 C81.5305101,17.3670714 83.6425095,19.6478359 86.8105086,19.6478359 C89.9536872,19.6478359 92.0690712,17.3670714 92.0690712,13.943662 C92.0690712,10.5208182 89.9536872,8.23892238 86.8105086,8.23892238 Z M110.571686,3.62082679 C117.157018,3.62082679 121.573376,7.75018713 121.573376,13.943662 C121.573376,20.1371368 117.157018,24.2664972 110.571686,24.2664972 C103.93615,24.2664972 99.5197922,20.1371368 99.5197922,13.943662 C99.5197922,7.75018713 103.93615,3.62082679 110.571686,3.62082679 Z M110.571686,8.23892238 C107.403687,8.23892238 105.291688,10.5208182 105.291688,13.943662 C105.291688,17.3670714 107.403687,19.6478359 110.571686,19.6478359 C113.714865,19.6478359 115.829685,17.3670714 115.829685,13.943662 C115.829685,10.5208182 113.714865,8.23892238 110.571686,8.23892238 Z M129.82625,23.9599063 L121.507432,3.85727509 L127.468302,3.85727509 L132.426762,16.9241551 L137.328812,3.85727509 L143.289682,3.85727509 L134.999069,23.9599063 L129.82625,23.9599063 Z M149.652024,15.8224078 C150.028844,17.836178 151.827203,19.6157626 154.617817,19.6157626 C156.936842,19.6157626 159.070842,18.7531223 160.461354,17.4707579 L163.04043,21.0904534 C161.258431,22.9718578 157.781868,24.2553535 154.240997,24.2553535 C147.812486,24.2553535 143.519667,20.2402577 143.519667,14.144643 C143.519667,7.86631832 147.558076,3.6323098 153.67351,3.6323098 C159.75397,3.6323098 163.538533,7.50372654 163.538533,13.5263703 C163.538533,14.3658184 163.467456,15.1390835 163.395815,15.8224078 L149.652024,15.8224078 Z M157.958996,12.1512368 C157.505458,9.72962146 156.209714,8.0914533 153.794792,8.0914533 C151.380434,8.0914533 150.077921,9.72962146 149.595614,12.1512368 L157.958996,12.1512368 Z M172.838156,23.9273239 L172.838156,3.85806702 L178.417693,3.85806702 L178.417693,23.9273239 L172.838156,23.9273239 Z M180.876672,3.85721852 L198,3.85721852 L198,8.47587978 L192.228104,8.47587978 L192.228104,23.9270411 L186.648567,23.9270411 L186.648567,8.47587978 L180.876672,8.47587978 L180.876672,3.85721852 Z M67.2274116,12.6919001 L62.8567462,21.2509893 L59.0727473,21.2509893 L54.7274665,12.7252744 L52.7773645,23.9265886 L47.2626994,23.9265886 L51.1629034,3.85789732 L55.7428508,3.85789732 L60.9636185,15.4342479 L66.1872068,3.85789732 L70.7665901,3.85789732 L74.6667941,23.9265886 L69.1526931,23.9265886 L67.2274116,12.6919001 Z" id="Moove-It-Logo"></path>
            </g>
        </g>
    </g>
</svg>
