<?xml version="1.0" encoding="utf-8"?>
<!-- Generator: Adobe Illustrator 18.1.0, SVG Export Plug-In . SVG Version: 6.00 Build 0)  -->
<svg version="1.1" id="Capa_1" xmlns="http://www.w3.org/2000/svg" xmlns:xlink="http://www.w3.org/1999/xlink" x="0px" y="0px"
	 viewBox="0 0 197.4 40.4" enable-background="new 0 0 197.4 40.4" xml:space="preserve">
<path fill-rule="evenodd" clip-rule="evenodd" fill="#F68C44" d="M153.1,22.5c-0.2,0-0.3,0.2-0.3,0.6v4.3c0,0.5,0.1,0.6,0.6,0.6H164
	c0.4,0,0.6-0.1,0.6-0.6v-4.3c0-0.4-0.1-0.6-0.3-0.6H153.1z M84.1,15.1c4.1,0,4.8,4.2,4.8,9.7c0,5.5-0.7,9.7-4.8,9.7
	c-4.1,0-4.8-4.2-4.8-9.7C79.3,19.3,80,15.1,84.1,15.1z M54.7,15.1c4.1,0,4.8,4.2,4.8,9.7c0,5.5-0.7,9.7-4.8,9.7
	c-4.1,0-4.8-4.2-4.8-9.7C49.8,19.3,50.6,15.1,54.7,15.1z M137,14.7c4.1,0,4.2,4.2,4.2,6.6H132C132.2,19.7,132.4,14.7,137,14.7z
	 M170.1,11.9c-0.7,0-0.8,0.2-0.8,0.8v25.9c0,0.6,0.1,0.8,0.8,0.8h5.8c0.7,0,0.8-0.2,0.8-0.8V12.7c0-0.6-0.1-0.8-0.8-0.8H170.1z
	 M104.7,9.7c-0.1,0-0.8,0.1-0.9,0.1l-4.9,0.5c-0.9,0.1-1.3,0.2-1.3,0.7c0.1,0.4,0.2,0.9,0.3,1l9.4,27.2c0.2,0.7,0.3,0.8,1.1,0.8h4.8
	c0.8,0,0.9-0.1,1.1-0.8l9.6-27.2c0.1-0.1,0.2-0.6,0.3-1c0-0.5-0.4-0.5-1.3-0.7l-4-0.5c-0.2,0-0.8-0.1-0.9-0.1
	c-0.5,0-0.6,0.5-0.8,1.2l-4,13.3c-2.6,8.5-1.5,9.1-4,0l-3.6-13.3C105.3,10.3,105.1,9.7,104.7,9.7z M137,9.2
	c-7.9,0-12.5,6.5-12.5,15.9c0,10.9,5.4,15.3,13.2,15.3c4.7,0,10.6-2,10.6-3.5c0-0.2-0.1-0.5-0.2-0.6l-1.5-3.6
	c-0.1-0.2-0.4-0.5-0.7-0.5c-0.8,0-3.3,1.9-7.5,1.9c-5.5,0-6.5-4.1-6.5-7.4H147c1.1,0,1.4-0.3,1.4-1.5C148.4,18.2,147,9.2,137,9.2z
	 M84.1,9.2c-8,0-12.8,6.1-12.8,15.6c0,9.5,4.8,15.6,12.8,15.6c8,0,12.8-6.1,12.8-15.6C96.9,15.3,92,9.2,84.1,9.2z M54.7,9.2
	c-8,0-12.8,6.1-12.8,15.6c0,9.5,4.8,15.6,12.8,15.6c8,0,12.8-6.1,12.8-15.6C67.5,15.3,62.6,9.2,54.7,9.2z M4.9,9.2
	c-0.2,0-0.5,0.1-0.9,0.2l-3.4,1.1C0.2,10.6,0,11,0,11.6l0,9.1v17.8c0,0.7,0.1,0.8,0.8,0.8h5.9c0.7,0,0.8-0.2,0.8-0.8V17.8
	c0.8-0.7,2.7-2.4,5.2-2.4c2.2,0,2.5,2.7,2.5,5v18.2c0,0.7,0.1,0.8,0.8,0.8h5.8c0.7,0,0.8-0.2,0.8-0.8V17.8c0.8-0.7,2.7-2.4,5.2-2.4
	c2.2,0,2.5,2.7,2.5,5v18.2c0,0.7,0.1,0.8,0.8,0.8h5.9c0.7,0,0.8-0.2,0.8-0.8v-20c0-5.1-1.3-9.3-6.9-9.3c-4.8,0-7.4,2.6-9.2,4.1
	c-0.7-2.5-3.5-4.1-6-4.1c-4.7,0-7.3,2.6-9,4.1C6.2,10.5,5.7,9.2,4.9,9.2L4.9,9.2z M185.6,5.8c-0.5,0-0.6,0.2-0.6,0.8v5.4h-3.1
	c-0.5,0-0.8,0.1-0.8,0.8v3.5c0,0.6,0.1,0.9,0.9,0.9h3.1v18.5c0,1.9,1.6,4.8,5.1,4.8c4.9,0,7.2-2,7.2-3.5c0-0.2,0-0.5-0.2-0.7
	l-1.5-2.1c-0.1-0.2-0.4-0.5-0.7-0.5c-2.2,1.5-2.5,0.2-2.5-1.2V17.1h3.1c0.7,0,0.7-0.2,0.8-0.8l0.9-3.6c0.1-0.6-0.1-0.8-0.8-0.8h-4
	V6.5c0-0.6-0.1-0.8-0.8-0.8h-5.8c0,0-0.1,0-0.1,0C185.7,5.8,185.7,5.8,185.6,5.8z M173.1,0c-2.4,0-4.4,1.9-4.4,4.3
	c0,2.4,1.9,4.4,4.4,4.4c2.4,0,4.3-1.9,4.3-4.4C177.4,1.9,175.5,0,173.1,0z"/>
</svg>
