<?xml version="1.0" encoding="utf-8"?>
<!-- Generator: Adobe Illustrator 18.1.0, SVG Export Plug-In . SVG Version: 6.00 Build 0)  -->
<svg version="1.0"
	 id="music" xmlns:rdf="http://www.w3.org/1999/02/22-rdf-syntax-ns#" xmlns:dc="http://purl.org/dc/elements/1.1/" xmlns:svg="http://www.w3.org/2000/svg" xmlns:cc="http://creativecommons.org/ns#"
	 xmlns="http://www.w3.org/2000/svg" xmlns:xlink="http://www.w3.org/1999/xlink" x="0px" y="0px"
	 viewBox="107.6 -900.8 276.7 70.9" enable-background="new 107.6 -900.8 276.7 70.9" xml:space="preserve">
<g opacity="0.7">
	<g id="nota-union">
		<g id="black-2">
			<circle id="circle-black-2" fill="#171718" cx="113.2" cy="-872" r="5.5"/>
			
				<rect id="rec-black-2" x="113" y="-891.5" transform="matrix(0.9313 -0.3643 0.3643 0.9313 329.1307 -19.1034)" fill="#171718" width="1.9" height="19.1"/>
		</g>
		<g id="black-1">
			<circle id="circle-black-1" fill="#171718" cx="129.5" cy="-880.2" r="5.5"/>
			
				<rect id="rec-black-1" x="129.3" y="-899.7" transform="matrix(0.9313 -0.3643 0.3643 0.9313 333.2364 -13.7116)" fill="#171718" width="1.9" height="19.1"/>
		</g>
		
			<rect id="union" x="108.8" y="-897.4" transform="matrix(0.9313 -0.3643 0.3643 0.9313 333.9453 -18.1359)" fill="#171718" width="20.2" height="6.3"/>
	</g>
	<g id="corchea">
		<g id="nota-group">
			<circle id="circle-corchea" fill="#171718" cx="151.5" cy="-860.2" r="3.9"/>
			
				<rect id="rect-corchea" x="156" y="-871.7" transform="matrix(0.9298 0.368 -0.368 0.9298 -307.3553 -118.3772)" fill="#171718" width="1.4" height="13.4"/>
		</g>
		<path id="corchea-header" fill="#171718" d="M162.6-867.6l-4.8-1.9l1.6-4.1l9,3.5h0C167.4-867.8,164.8-866.7,162.6-867.6z"/>
	</g>
	<g id="corchea_1_">
		<g id="nota-group_1_">
			<circle id="circle-corchea_1_" fill="#171718" cx="340.5" cy="-883.2" r="3.9"/>
			
				<rect id="rect-corchea_1_" x="345" y="-894.7" transform="matrix(0.9298 0.368 -0.368 0.9298 -302.5548 -189.5494)" fill="#171718" width="1.4" height="13.4"/>
		</g>
		<path id="corchea-header_1_" fill="#171718" d="M351.6-890.6l-4.8-1.9l1.6-4.1l9,3.5l0,0C356.4-890.8,353.8-889.7,351.6-890.6z"/>
	</g>
	<g id="nota-union_1_">
		<g id="black-2_1_">
			
				<ellipse id="circle-black-2_1_" transform="matrix(0.9313 -0.3643 0.3643 0.9313 328.5348 61.0514)" fill="#171718" cx="326.1" cy="-840.3" rx="3.7" ry="3.9"/>
			
				<rect id="rec-black-2_1_" x="325.8" y="-854" transform="matrix(0.9313 -0.3643 0.3643 0.9313 331.1059 60.7158)" fill="#171718" width="1.3" height="13.4"/>
		</g>
		<g id="black-1_1_">
			
				<ellipse id="circle-black-1_1_" transform="matrix(0.9313 -0.3643 0.3643 0.9313 331.2942 64.6385)" fill="#171718" cx="337" cy="-845.8" rx="3.7" ry="3.9"/>
			
				<rect id="rec-black-1_1_" x="336.7" y="-859.5" transform="matrix(0.9313 -0.3643 0.3643 0.9313 333.8653 64.3029)" fill="#171718" width="1.3" height="13.4"/>
		</g>
		
			<rect id="union_1_" x="323" y="-858" transform="matrix(0.9313 -0.3643 0.3643 0.9313 334.4284 61.2935)" fill="#171718" width="13.5" height="4.4"/>
	</g>
	<g id="nota-union_2_">
		<g id="black-2_2_">
			
				<ellipse id="circle-black-2_2_" transform="matrix(0.9313 -0.3643 0.3643 0.9313 339.9222 76.6326)" fill="#171718" cx="373.1" cy="-862.7" rx="2.8" ry="2.3"/>
			
				<rect id="rec-black-2_2_" x="373.3" y="-871.1" transform="matrix(0.9313 -0.3643 0.3643 0.9313 341.5661 76.5887)" fill="#171718" width="1" height="8.1"/>
		</g>
		<g id="black-1_2_">
			
				<ellipse id="circle-black-1_2_" transform="matrix(0.9313 -0.3643 0.3643 0.9313 341.9926 79.4464)" fill="#171718" cx="381.6" cy="-866.8" rx="2.8" ry="2.3"/>
			
				<rect id="rec-black-1_2_" x="381.8" y="-875.2" transform="matrix(0.9313 -0.3643 0.3643 0.9313 343.6364 79.4025)" fill="#171718" width="1" height="8.1"/>
		</g>
		
			<rect id="union_2_" x="371.5" y="-873.9" transform="matrix(0.9313 -0.3643 0.3643 0.9313 343.7688 77.2649)" fill="#171718" width="10.4" height="2.6"/>
	</g>
	<g id="corchea_2_">
		<g id="nota-group_2_">
			<circle id="circle-corchea_2_" fill="#171718" cx="112.8" cy="-832.9" r="3"/>
			
				<rect id="rect-corchea_2_" x="116.3" y="-841.8" transform="matrix(0.9298 0.368 -0.368 0.9298 -299.699 -101.7138)" fill="#171718" width="1" height="10.3"/>
		</g>
		<path id="corchea-header_2_" fill="#171718" d="M121.3-838.6l-3.7-1.5l1.2-3.1l6.9,2.7l0,0C125-838.8,123.1-837.9,121.3-838.6z"/>
	</g>
</g>
</svg>
